<?xml version="1.0" encoding="UTF-8" standalone="no"?>
<!-- Created with Inkscape (http://www.inkscape.org/) -->

<svg
   version="1.1"
   id="svg1"
   width="500"
   height="500"
   viewBox="0 0 500 500"
   xmlns="http://www.w3.org/2000/svg"
   xmlns:svg="http://www.w3.org/2000/svg">
  <defs
     id="defs1" />
  <g
     id="g1">
    <g
       id="g23">
      <path
         style="fill:#b4c5d0"
         d="m 242.5,368.41299 c -6.194,-3.46276 -20.23106,-8.45131 -29,-10.30616 -10.43791,-2.20787 -20.59527,-3.19598 -38.5,-3.74528 -15.35654,-0.47112 -21.3758,-0.20577 -35.42477,1.56167 -17.28968,2.17515 -18.5107,2.07312 -18.55992,-1.55078 -0.0326,-2.40195 3.02749,-3.18772 18.50877,-4.75265 43.47785,-4.39495 80.33786,0.14608 104.24949,12.84321 l 6.488,3.44515 7.11921,-3.88719 C 274.22649,352.823 297.70076,348.50046 330,348.64893 c 19.12373,0.0879 46.29295,2.17802 48.84934,3.75796 0.48534,0.29996 0.66318,1.69238 0.39519,3.09427 -0.47904,2.50592 -0.59901,2.53829 -7.11589,1.92015 -3.64575,-0.3458 -6.88188,-0.78154 -7.19139,-0.96831 -0.30951,-0.18677 -8.95744,-0.83479 -19.21761,-1.44004 -37.7721,-2.2282 -69.40266,2.71612 -89.33289,13.96405 -2.94605,1.66264 -5.92577,2.97063 -6.6216,2.90664 -0.69583,-0.064 -3.96515,-1.62579 -7.26515,-3.47066 z M 231.44194,355.46434 C 207.51154,347.50621 185.32322,345.044 154.14211,346.88648 142.78895,347.55733 131.925,348.34363 130,348.63381 l -3.5,0.52761 3.5,-2.78716 c 5.83049,-4.64301 9.58574,-8.96572 11.71033,-13.47989 l 2.01965,-4.29118 5.38501,0.26249 c 9.42318,0.45933 39.99015,5.10289 51.31114,7.7949 17.44567,4.14839 33.68555,11.66806 40.52004,18.76228 4.18111,4.34001 3.43145,4.34329 -9.50423,0.0415 z m 9.3785,-2.83623 C 233.70298,345.93056 220.66556,338.78247 206,333.53694 c -8.37295,-2.99481 -48.80631,-13.2856 -65,-16.5433 -14.10615,-2.83775 -19.34169,-4.12404 -20.31035,-4.98995 -0.70172,-0.62729 8.73978,-22.42349 22.12203,-51.06988 2.20095,-4.71141 5.34871,-11.53691 6.99502,-15.16778 l 2.99331,-6.60158 9.34999,2.02273 c 43.00944,9.30445 72.91257,30.2394 83.66224,58.57127 2.45777,6.47771 2.57401,7.76888 2.97,32.99155 0.22667,14.4375 0.0309,26.23056 -0.43506,26.2068 -0.46595,-0.0238 -3.85298,-2.87167 -7.52674,-6.32869 z M 252,334.7101 c 0,-27.26994 0.63681,-31.4528 6.60406,-43.37815 4.65119,-9.29523 11.14838,-17.27788 20.31869,-24.96415 13.98101,-11.71845 30.35614,-19.06552 55.42179,-24.86622 9.99975,-2.31415 12.0469,-2.52774 13.14385,-1.37133 0.71462,0.75336 4.32952,7.89475 8.0331,15.86975 C 372.48522,292.52837 381,311.22147 381,311.93476 c 0,0.4261 -6.8625,2.22726 -15.25,4.00259 -69.8319,14.7808 -91.84316,22.37021 -106.71214,36.794 C 255.48369,356.17911 252.44619,359 252.28786,359 252.12954,359 252,348.06954 252,334.7101 Z m 5.01679,22.25852 c 2.43993,-4.55904 17.57629,-13.57067 29.08144,-17.31402 11.21905,-3.65026 31.01545,-7.34235 51.63926,-9.63087 C 347.76811,328.91068 356.17922,328 356.42885,328 c 0.24963,0 1.83697,2.59496 3.52743,5.76659 2.72686,5.11611 6.38875,8.8222 13.54215,13.70562 3.04857,2.08117 1.62893,2.40008 -5.49843,1.23516 -3.575,-0.58431 -20,-1.095 -36.5,-1.13487 -34.00533,-0.0822 -43.90278,1.1543 -63.30889,7.90913 -11.94492,4.15775 -12.65418,4.25213 -11.17432,1.48699 z m -9.98352,-117.20789 c -0.0258,-8.3416 0.40876,-11.9026 1.94658,-15.94983 5.99223,-15.77025 18.03869,-24.41944 35.5858,-25.5501 7.16898,-0.46193 25.43435,1.2489 25.43435,2.38233 0,1.08149 -4.6252,9.36409 -8.05881,14.43133 -7.19132,10.6128 -15.05461,15.55211 -29.48727,18.52236 -11.93203,2.45561 -15.11215,4.41893 -23.32974,14.40318 l -2.05764,2.5 z M 213,200.5 c 0,-35.46709 0.29493,-47.5 1.16423,-47.5 2.25978,0 17.74291,9.32611 22.73916,13.69671 3.66122,3.20274 6.21439,6.75456 9.22988,12.84009 3.84646,7.76248 4.20549,9.17827 4.6457,18.32003 0.75473,15.67348 -2.08775,24.35395 -11.76878,35.93995 -4.06319,4.86272 -6.80394,6.97685 -13.18558,10.17096 C 221.3937,246.18549 216.69552,248 215.3842,248 H 213 Z"
         id="path29" />
      <path
         style="fill:#9bb8c9"
         d="m 244.17418,368.85162 c -15.82181,-9.22204 -44.53695,-14.86469 -75.53013,-14.84199 -11.6312,0.009 -35.39556,1.97932 -42.82452,3.55148 -2.05997,0.43594 -2.94411,0.0746 -3.81939,-1.56085 -0.80921,-1.51203 -0.83038,-2.49988 -0.0731,-3.41232 2.9044,-3.49958 58.20538,-5.43488 78.07299,-2.73221 19.23278,2.61631 34.70346,7.26421 45.77416,13.75207 l 4.33302,2.53932 8.69641,-4.45846 c 17.69221,-9.0704 38.6423,-12.95329 70.19641,-13.01019 16.96041,-0.0306 33.16224,0.9997 46.25,2.94107 3.1133,0.46181 3.75,0.95578 3.75,2.90934 0,1.2942 -0.3375,2.54173 -0.75,2.77229 -0.4125,0.23057 -3.9,0.0558 -7.75,-0.38827 -3.85,-0.44411 -15.21,-1.31263 -25.24445,-1.93003 -36.53393,-2.24786 -65.55399,2.00025 -86.30953,12.63445 -4.70469,2.41048 -8.75469,4.37275 -9,4.36062 -0.24531,-0.0121 -2.84264,-1.41898 -5.77184,-3.12632 z M 239,357.33822 c -7.07214,-3.01628 -27.83917,-8.15278 -39.87603,-9.86289 -10.34832,-1.47021 -16.41047,-1.65467 -37,-1.12586 -13.54318,0.34784 -26.75889,1.01477 -29.36823,1.48208 l -4.74427,0.84964 5.87125,-5.31318 c 3.33254,-3.01577 6.81645,-7.324 8.05721,-9.9636 l 2.18596,-4.65043 7.18705,0.68206 c 15.16423,1.43911 41.66961,5.78036 52.68706,8.62949 12.82044,3.31538 29.12966,10.80282 35.5,16.29779 4.64494,4.00666 4.46262,5.09147 -0.5,2.9749 z m 13.01478,-22.00097 c 0.017,-27.37518 0.80681,-32.36262 7.00342,-44.22321 13.08638,-25.04791 37.46142,-40.96236 76.09738,-49.68391 6.15385,-1.38915 11.56417,-2.15038 12.02292,-1.69163 1.73369,1.73369 34.41646,72.07228 33.75707,72.65066 -0.21756,0.19084 -13.36826,3.13702 -29.22378,6.54706 -45.78387,9.84674 -59.94865,14.09552 -78.1483,23.44091 -7.10321,3.64745 -11.63932,6.80404 -15.75,10.96012 L 252,359.17451 Z m 5.31161,22.25457 c 0.37049,-0.96547 0.67361,-1.90138 0.67361,-2.0798 0,-0.74693 10.25809,-7.61346 15.17828,-10.15999 13.9584,-7.22442 35.87778,-12.32538 65.82172,-15.31768 5.775,-0.57709 11.93129,-1.28544 13.68065,-1.57411 3.01299,-0.49718 3.41196,-0.16729 7.56857,6.25817 2.89402,4.4737 6.14318,7.97437 9.54356,10.2823 2.83561,1.92461 5.16725,3.73453 5.18143,4.02205 0.0142,0.28753 -4.58671,-0.0156 -10.22421,-0.67359 -5.6375,-0.65799 -21.02273,-1.23074 -34.1894,-1.27276 -31.90144,-0.10182 -48.69515,2.58858 -71.98421,11.5321 -1.55518,0.59722 -1.79459,0.4025 -1.25,-1.01669 z M 244,354.48418 c -7.25002,-7.51718 -21.30284,-15.37703 -38,-21.25369 -13.71821,-4.82821 -26.30139,-7.99657 -78.73847,-19.82584 -3.98117,-0.89811 -7.06709,-1.91907 -6.85761,-2.26879 0.20948,-0.34972 3.39734,-7.38586 7.08414,-15.63586 10.70752,-23.96041 24.68214,-53.91692 25.6328,-54.94744 2.03703,-2.20815 33.83289,7.38247 48.14732,14.52273 18.35577,9.15613 33.69915,23.11369 40.62925,36.95962 5.64404,11.27644 6.17802,15.12086 5.87141,42.27167 L 247.5,358.11315 Z M 247.21199,238.75 c 0.47156,-13.81173 2.60698,-19.90371 9.80951,-27.98476 9.30815,-10.44352 22.27898,-14.13655 41.71565,-11.8772 5.90243,0.6861 10.90571,1.42149 11.11842,1.63419 0.6086,0.6086 -5.71232,11.37385 -10.05732,17.12876 -6.90438,9.14479 -12.63194,12.53511 -26.1107,15.45577 -12.57455,2.72472 -16.98245,5.04515 -21.86279,11.50912 -2.23578,2.96126 -4.27471,5.38412 -4.53096,5.38412 -0.25625,0 -0.29306,-5.0625 -0.0818,-11.25 z m -33.54532,8.58333 c -0.98839,-0.98838 -0.80993,-93.12676 0.18156,-93.73953 1.23128,-0.76097 13.72502,6.03974 20.26993,11.03353 9.98284,7.61693 15.78146,19.27187 16.62578,33.41698 0.89672,15.02276 -2.95976,25.79609 -13.13847,36.70321 -7.40301,7.93278 -21.2905,15.23412 -23.9388,12.58581 z"
         id="path28" />
      <path
         style="fill:#9aa4ae"
         d="M 241.30805,367.53901 C 224.94789,358.99323 198.23042,353.99444 169,354.01029 c -12.59706,0.007 -34.92218,1.8484 -43.18047,3.56191 -2.08248,0.43209 -2.94731,0.0575 -3.87661,-1.67885 -0.98948,-1.84887 -0.91102,-2.44351 0.45415,-3.44175 2.75166,-2.01206 26.88528,-3.95402 48.60293,-3.91092 33.44357,0.0664 56.08546,4.55664 73.77558,14.63098 l 5.27558,3.00439 8.72442,-4.47292 c 17.58888,-9.01764 38.5643,-12.9287 69.72442,-13.00076 16.67766,-0.0386 32.16118,0.94097 46.25,2.92594 3.61113,0.50877 4.25,0.94865 4.25,2.92622 0,1.28009 -0.3375,2.51457 -0.75,2.74329 -0.4125,0.22872 -6.15,-0.17613 -12.75,-0.89967 -45.29175,-4.96518 -80.72344,-1.39088 -105.1705,10.60946 -5.59378,2.74581 -10.31878,4.95146 -10.5,4.90144 -0.18123,-0.05 -4.01588,-2.01654 -8.52145,-4.37004 z m 10.70673,-32.20176 c 0.017,-27.37518 0.80681,-32.36262 7.00342,-44.22321 13.04732,-24.97314 37.54815,-40.98193 76.00859,-49.66386 6.20269,-1.40018 11.65907,-2.16432 12.12528,-1.69811 1.68149,1.68149 34.4028,72.08939 33.73953,72.59885 -0.21538,0.16544 -11.4166,2.67189 -24.8916,5.56988 -48.64836,10.46255 -61.24576,14.13435 -79.90229,23.28933 -9.96125,4.88811 -13.55324,7.25492 -18.25,12.02516 L 252,359.17451 Z m 5.31161,22.25457 c 0.37049,-0.96547 0.67361,-1.90138 0.67361,-2.0798 0,-0.17843 2.1375,-1.85746 4.75,-3.73119 15.67288,-11.24088 34.15387,-16.76923 69.60469,-20.82137 25.13723,-2.87327 23.67069,-3.07792 27.98053,3.90458 3.26732,5.29348 7.26019,9.23829 13.10218,12.94449 1.76958,1.12263 1.06815,1.22228 -4.9374,0.70147 -3.85,-0.33388 -15.97362,-1.00438 -26.94138,-1.49 -34.28757,-1.51815 -57.17553,1.67817 -82.98223,11.58851 -1.55518,0.59722 -1.79459,0.4025 -1.25,-1.01669 z M 247,240.1815 c 0,-29.04177 19.37437,-44.95398 50.2949,-41.30732 5.25029,0.6192 10.03178,1.12582 10.62554,1.12582 1.9178,0 1.15338,3.15752 -2.03103,8.3894 -10.38843,17.06782 -17.46048,21.96723 -37.01455,25.64311 -6.98047,1.31223 -13.677,5.462 -17.47658,10.83008 -1.59405,2.25209 -3.23578,4.10432 -3.64828,4.11606 -0.4125,0.0117 -0.75,-3.94697 -0.75,-8.79715 z m -33.35029,5.64276 c -0.81152,-3.0305 -0.84075,-91.29989 -0.0305,-92.11013 0.9699,-0.96991 13.2524,5.58274 19.88127,10.60655 3.29974,2.50076 7.45745,6.71675 9.23937,9.36885 9.4702,14.09494 10.78502,34.40379 3.20011,49.4294 -4.23215,8.38385 -12.92818,17.29748 -20.29821,20.80615 -9.22862,4.39349 -11.23886,4.71185 -11.99204,1.89918 z"
         id="path27" />
      <path
         style="fill:#6f8da1"
         d="m 243.5,368.44709 c -7.97275,-4.54806 -22.36238,-9.27178 -35.39648,-11.61969 -16.07071,-2.89491 -47.55535,-3.55884 -66.61223,-1.40468 -8.24521,0.93203 -15.89129,1.7807 -16.99129,1.88594 -1.49199,0.14274 -2.07952,-0.49831 -2.31306,-2.52378 -0.36877,-3.19835 -0.64293,-3.11269 15.81306,-4.94082 6.325,-0.70265 20.725,-1.26993 32,-1.2606 31.84568,0.0263 50.86035,3.4173 69.92415,12.46991 l 10.68575,5.07421 7.44505,-3.99644 c 21.78901,-11.69616 61.19617,-16.09982 104.44505,-11.67148 8.25,0.84474 15.3375,1.53688 15.75,1.53811 0.4125,10e-4 0.75,1.10067 0.75,2.44321 0,1.34254 -0.3375,2.63728 -0.75,2.8772 -0.4125,0.23991 -5.475,-0.16515 -11.25,-0.90014 -18.52646,-2.35787 -46.71688,-2.83812 -63,-1.07325 -20.73235,2.2471 -39.06379,7.53794 -49.22856,14.20841 -2.05071,1.34574 -4.07571,2.4175 -4.5,2.3817 -0.42429,-0.0358 -3.47144,-1.60532 -6.77144,-3.48781 z m 13.5318,-10.11376 c 0.0569,-1.48971 2.3706,-3.80792 7.4682,-7.48258 14.31617,-10.31998 33.45935,-15.84761 68.81498,-19.87045 24.45776,-2.78286 22.93101,-2.9714 26.47688,3.2697 3.21151,5.65261 5.46086,8.00895 11.70814,12.26506 l 4,2.72509 -5.5,-0.59966 c -13.78395,-1.50285 -44.52612,-2.71485 -54.5,-2.14864 -19.49709,1.10683 -42.09026,5.90533 -57.25,12.15916 -0.6875,0.28361 -1.23569,0.14066 -1.2182,-0.31768 z M 252,335.15996 c 0,-19.45862 0.29195,-23.98155 1.972,-30.55048 3.60817,-14.10781 11.29609,-25.82007 24.68682,-37.60948 12.21972,-10.75842 28.36094,-18.34112 51.21507,-24.0594 18.94835,-4.74103 15.98128,-6.49064 26.38632,15.5594 17.19407,36.43712 24.57831,53.00449 23.91138,53.64786 -0.36937,0.35633 -13.72159,3.44769 -29.67159,6.86971 -45.88652,9.84477 -65.18332,15.92653 -81.87788,25.80536 -4.34715,2.57239 -9.51081,6.58957 -11.47478,8.92707 -1.96398,2.3375 -3.92557,4.25 -4.3591,4.25 C 252.35471,358 252,347.72198 252,335.15996 Z M 247.01187,240.75 c 0.0428,-29.74379 18.41259,-44.876 50.568,-41.65563 6.00607,0.60151 11.11328,1.282 11.34935,1.5122 0.63249,0.61675 -2.6039,7.06439 -6.46833,12.88639 -7.69846,11.59822 -14.96727,16.40975 -29.47347,19.50973 -4.8762,1.04204 -10.64483,2.80221 -12.81917,3.91148 C 256.47954,238.79601 249,246.3409 249,248.18 c 0,0.451 -0.45,0.82 -1,0.82 -0.58682,0 -0.9951,-3.40875 -0.98813,-8.25 z m -33.37595,2.61043 C 213.28617,240.80866 213,219.86954 213,196.82904 c 0,-35.81139 0.21199,-41.97316 1.46052,-42.45226 2.24956,-0.86324 15.95694,7.18943 22.41406,13.16759 4.18723,3.87664 6.68514,7.31231 9.0558,12.45552 11.32556,24.57112 2.17735,52.31428 -21.09068,63.9603 -4.43921,2.2219 -8.63302,4.03981 -9.31957,4.03981 -0.72696,0 -1.51386,-1.93762 -1.88421,-4.63957 z"
         id="path26" />
      <path
         style="fill:#4c7b97"
         d="m 240,366.84633 c -17.7026,-9.01349 -39.20211,-12.86837 -71.47014,-12.81465 -10.81129,0.018 -23.56457,0.65214 -29.52986,1.46832 -15.33773,2.09854 -17,2.01428 -17,-0.86176 0,-2.28299 0.44188,-2.41512 13.25,-3.96205 19.19589,-2.31841 34.33815,-2.82257 50.25,-1.67305 25.87259,1.86911 42.9367,5.9134 57.71361,13.67845 l 6.84118,3.59494 9.22261,-4.58491 C 276.63209,353.06393 298.76253,349 328.3906,349 c 15.89165,0 47.634,2.27914 49.72292,3.57016 1.07805,0.66627 1.17952,4.16036 0.13648,4.6994 -0.4125,0.21318 -4.8,-0.18383 -9.75,-0.88224 -14.11963,-1.99219 -51.24994,-2.866 -63.5,-1.49439 -20.42003,2.28638 -34.13716,6.00508 -46.86289,12.70447 -4.59958,2.42143 -8.42458,4.33136 -8.5,4.24428 -0.0754,-0.0871 -4.41211,-2.33498 -9.63711,-4.99535 z m 17,-8.63575 c 0,-3.00596 16.58751,-13.7883 26.50962,-17.23199 12.68566,-4.40285 30.20355,-7.74261 54.83576,-10.45436 19.35782,-2.13109 17.98324,-2.36989 21.44648,3.72577 3.20853,5.64737 5.45001,7.99701 11.70814,12.27312 l 4,2.73315 -4.5,-0.61979 c -11.8274,-1.62898 -39.01882,-2.79741 -52.5,-2.25594 -22.79464,0.91553 -43.43139,5.08894 -59.75,12.08336 -1.00231,0.42961 -1.75,0.32137 -1.75,-0.25332 z m -4.20549,-22.48642 c -0.47698,-23.74391 0.26813,-30.69319 4.31285,-40.22416 7.90702,-18.63207 27.40705,-36.38326 49.77069,-45.30706 9.17645,-3.66169 33.52573,-10.19622 37.96315,-10.18804 2.80029,0.005 5.1967,4.69776 29.73382,58.22425 l 6.29359,13.72914 -3.6843,0.98415 c -2.02637,0.54129 -13.35931,3.03452 -25.18431,5.54051 -55.85545,11.83708 -82.82402,21.75059 -94.50951,34.74121 l -4.24954,4.72415 z m -5.76124,-93.33767 c -0.0913,-19.52807 7.16409,-32.74733 21.75718,-39.64121 7.15386,-3.37953 17.53717,-4.5118 30.35767,-3.31042 10.82948,1.0148 10.91921,1.15222 6.07599,9.30457 -8.97828,15.11269 -16.60768,20.71948 -32.93236,24.20177 -12.75449,2.72072 -15.14445,4.16955 -23.19104,14.0588 l -2.03417,2.5 z M 214,201.06739 C 214,175.18032 214.26879,154 214.5973,154 c 0.32852,0 4.04102,1.7923 8.25,3.98288 19.15424,9.96891 27.26004,22.91136 27.25455,43.51712 -0.003,10.44645 -0.89483,14.25067 -5.40995,23.07125 -5.12309,10.00829 -16.75853,19.37105 -28.4419,22.88651 l -2.25,0.67702 z"
         id="path25" />
      <path
         style="fill:#516072"
         d="m 240,366.84633 c -17.7026,-9.01349 -39.20211,-12.86837 -71.47014,-12.81465 -10.81129,0.018 -23.56457,0.65214 -29.52986,1.46832 -15.32669,2.09703 -17,2.01304 -17,-0.8533 0,-2.26404 0.50256,-2.4201 13.25,-4.1146 8.94892,-1.18957 19.9045,-1.76414 33.75,-1.77004 32.63874,-0.0139 56.05507,4.37749 74.20815,13.91666 l 6.83572,3.59207 9.22807,-4.55644 c 17.47593,-8.62891 39.72707,-12.71687 69.18652,-12.7109 15.5749,0.003 47.63216,2.31649 49.68532,3.58541 0.91442,0.56514 1.17647,3.75755 0.37429,4.55973 -0.26505,0.26506 -4.65255,-0.0935 -9.75,-0.79691 -14.40156,-1.98718 -51.47433,-2.83525 -63.76807,-1.45875 -20.61016,2.30767 -34.15251,5.97456 -46.86289,12.68915 -4.59958,2.42986 -8.42458,4.34668 -8.5,4.2596 -0.0754,-0.0871 -4.41211,-2.33498 -9.63711,-4.99535 z m 17,-8.63575 c 0,-1.5037 5.92444,-6.41241 12.7259,-10.54407 14.01483,-8.51356 33.82446,-13.4286 69.13091,-17.15232 18.95246,-1.99889 17.78551,-2.13562 20.07507,2.35228 2.8308,5.54882 6.86092,10.03498 12.04846,13.41181 l 4.51966,2.94207 -4.5,-0.59779 c -12.64552,-1.67988 -38.24873,-2.7893 -52,-2.25323 -23.20465,0.9046 -43.77836,5.03456 -60.25,12.09457 -1.00231,0.42961 -1.75,0.32137 -1.75,-0.25332 z M 252.76393,339.17 c -0.29993,-23.72104 -0.11265,-28.52592 1.34997,-34.63492 4.83613,-20.19935 24.17275,-41.55323 46.95195,-51.85013 11.03784,-4.98944 37.71458,-12.68789 43.93415,-12.67864 2.62375,0.004 5.29908,5.26824 29.08335,57.2283 l 6.74464,14.73462 -3.66399,0.97868 c -2.0152,0.53828 -13.114,2.98382 -24.664,5.43453 -43.75423,9.28392 -58.59919,13.6261 -76.5,22.37641 -8.80138,4.30231 -12.84931,6.96604 -17.25,11.35131 L 253,357.84 Z"
         id="path24" />
      <path
         style="fill:#1e324a"
         d="M 243.70933,367.98779 C 219.61977,354.89744 177.90506,350.04457 136.61116,355.52854 124.09867,357.19024 122,357.04251 122,354.5 c 0,-2.09864 0.49387,-2.22256 15.84512,-3.97584 25.19127,-2.87712 59.7885,-1.53498 80.64459,3.12847 7.5941,1.69805 20.44608,6.68933 27.29651,10.60105 l 4.28622,2.44751 9.71378,-4.85509 C 278.5236,352.48088 303.599,348.36395 336,349.33317 c 17.27601,0.51678 34.12098,1.85446 40.75,3.23601 2.54826,0.53108 3.02858,3.19482 0.73481,4.07502 -0.83336,0.31979 -4.99586,0.0856 -9.25,-0.52034 -24.19227,-3.44604 -54.6076,-3.28031 -76.73481,0.41814 -13.12268,2.19338 -29.15709,7.71129 -37.36991,12.86008 L 250.5,371.67786 Z m 14.33354,-11.0679 c 1.19425,-2.23147 9.45635,-8.12555 16.13541,-11.5108 12.75967,-6.46718 32.07861,-10.95426 61.93458,-14.38513 C 345.79993,329.91078 354.3507,329 355.11457,329 c 0.76388,0 2.48355,2.0635 3.8215,4.58556 2.41319,4.54891 9.1042,11.66805 13.35264,14.20703 2.20339,1.3168 2.20236,1.31972 -0.28871,0.81617 -8.47692,-1.71356 -31.82473,-2.80424 -49.94415,-2.33311 -23.96538,0.62313 -36.8574,2.66282 -53.83157,8.51685 -8.85705,3.05461 -10.90686,3.48292 -10.18141,2.12739 z M 253.20189,331 c 0.29614,-26.07606 0.34325,-26.60045 2.94492,-32.77879 7.92788,-18.82683 22.62515,-34.0257 42.6817,-44.13838 12.41476,-6.25962 45.99444,-15.6806 48.13464,-13.50446 0.91914,0.93457 13.41778,27.27241 26.23812,55.29041 4.89404,10.6956 6.67819,15.58769 5.86756,16.08868 -0.64064,0.39594 -5.98071,1.71794 -11.86682,2.93777 -27.14709,5.62596 -49.72825,10.89473 -63.1152,14.72644 -20.12139,5.75927 -38.37905,14.84888 -46.57524,23.18755 L 252.90093,357.5 Z"
         id="path23" />
    </g>
  </g>
</svg>
